<?xml version="1.0" encoding="UTF-8" standalone="no"?>
<!DOCTYPE svg PUBLIC "-//W3C//DTD SVG 1.1//EN" "http://www.w3.org/Graphics/SVG/1.1/DTD/svg11.dtd">
<svg width="100%" height="100%" viewBox="0 0 3111 3305" version="1.1" xmlns="http://www.w3.org/2000/svg" xmlns:xlink="http://www.w3.org/1999/xlink" xml:space="preserve" xmlns:serif="http://www.serif.com/" style="fill-rule:evenodd;clip-rule:evenodd;stroke-linejoin:round;stroke-miterlimit:2;">
    <path d="M2798.58,2386.32C2784.41,2446.53 2772.68,2507.31 2763.15,2568.43C2744.3,2689.26 2728.69,2816.09 2731.76,2938.62C2734.06,3030.38 2775.55,3142.77 2879.11,3140.31C2922.38,3139.28 2979.52,3128.02 3016.47,3156.65C3057.76,3188.64 3083.44,3255.31 3110.65,3298.45C2994.75,3306.28 2876.4,3300.13 2760.22,3299.81C2713.13,3299.68 2631.42,3314.71 2593.72,3282.12C2552.09,3246.13 2520.81,3184.67 2488.3,3140.73C2481.89,3146.3 2476.64,3150.87 2470.72,3156.01C2441.86,3116.37 2442.71,3078.76 2443.05,3032.28C2443.41,2982.86 2425.96,2942.39 2409.22,2895.85C2391.43,2846.39 2294.67,2675.47 2347.77,2632.78C2332.25,2613.5 2289.48,2577.05 2290,2549.82C2290.52,2522.61 2312.99,2512.3 2332.81,2495.71C2257.78,2460.22 2257.22,2356.13 2277,2267.41C2319.35,2320.06 2363.22,2374.61 2404.52,2425.96C2402.72,2256 2296.17,2125.97 2214.94,1986.63C2218.28,2137.5 2213.2,2288.27 2218.03,2438.83C2220.02,2500.99 2151.52,2517.76 2106.52,2555.68C2058.5,2596.14 2021.8,2644.69 1983.99,2694.27C1983.99,2535.56 1966.51,2387.86 1779.42,2364.09C1619.08,2343.72 1450.67,2433.96 1420.98,2600.13C1531.75,2513.2 1799.77,2349.12 1879.62,2561.43C1951.13,2751.57 1801.73,2979.56 1653.91,3086.61C1720.93,3146.24 1785.69,3123.1 1868.28,3121.02C1953.7,3118.86 1998.54,3124.07 2046.7,3197.49C2047.99,3196.98 2049.27,3196.46 2050.56,3195.95C2044.63,3179.18 2038.69,3162.41 2031.62,3142.42C2084.06,3142.42 2139.58,3131.09 2180.4,3170.36C2216.13,3204.73 2235.97,3254.04 2255.14,3298.76C2056.82,3310.75 1854.64,3300.04 1655.93,3299.86C1548.15,3299.76 1440.37,3299.62 1332.58,3299.39C1295.98,3299.31 1236.66,3310.27 1202.92,3294.62C1163.73,3276.44 1133.27,3219.65 1105.89,3187.06C951.33,3249.93 798.55,3315.17 627.61,3288.55C493.36,3267.64 369.68,3196.57 299.98,3077.76C229.87,2958.26 226.4,2813.3 282.09,2687.56C313.34,2617 368.64,2558.24 396.72,2486.61C407.7,2458.61 416.57,2410.31 384.59,2390.02C350.49,2368.4 326.15,2403.45 305.27,2426.11C306.05,2321.57 402.84,2095.32 531.07,2210.78C640.15,2309 581.09,2452.87 511.74,2554.41C443.45,2654.4 360.01,2749.44 365.98,2878.07C370.77,2981.26 431.73,3072.64 522.12,3121.32C642.81,3186.31 804.33,3174.48 924.83,3114.16C998.35,3077.35 994.2,3034.48 1001.16,2957.37C1007,2892.73 1008.79,2828.08 1021.92,2764.28C1082.43,2470.15 1334.96,2312.2 1561.64,2148.99C1593.24,2126.24 1621.91,2099.79 1660.38,2091.29C1687.52,2085.29 1717.1,2087.15 1744.76,2081.66C1804.61,2069.78 1861.76,2046.98 1914.15,2015.82C2027.35,1948.48 2106.77,1847.88 2189.97,1748.42C1968.52,1718.14 1759.23,1660.43 1596.63,1497.04C1433.04,1332.65 1356.48,1088.96 1434.57,865.71C1462.07,871.03 1488.38,876.11 1515.77,881.41C1454.24,1112.52 1537.77,1346.76 1726.45,1491.6C1915.45,1636.7 2151.78,1674.27 2383.93,1661.15C2331.65,1598.92 2283.08,1541.1 2231.11,1479.24C2285.06,1496.19 2334.85,1511.84 2384.64,1527.49C2386,1525.75 2387.36,1524 2388.72,1522.26C2346.43,1486.87 2310.11,1454.25 2260.57,1429.23C2219.81,1408.65 2176.22,1392.59 2138.89,1365.78C2058.41,1307.99 2057.44,1234.06 2062.27,1143.3C2044.4,1163.45 2028.19,1181.74 2011.79,1200.23C1978.38,1127.23 2004.65,1060.78 2034.2,988.24C2006.16,1000.45 1984.43,1009.92 1961.57,1019.88C1961.84,932.06 2019.46,875.13 2070.88,812.62C2044.01,818.02 2017.14,823.42 1987.44,829.39C2021.37,735.61 2103.76,693.49 2182.68,642.25C2077.87,581.96 2015.93,522.55 2006.99,475.93C2110.36,498.38 2213.65,520.91 2316.74,544.6C2410.39,566.12 2520.43,578.88 2605.11,626.56C2642.26,647.48 2660.48,685.5 2693.18,708.23C2720.77,727.41 2757.51,717.2 2783.8,742.58C2843.21,799.94 2816.34,914.51 2763.17,965.09C2750.26,870.58 2639.96,872.08 2570.49,911.17C2485.44,959.02 2506.15,1040.96 2557.81,1105.46C2621.81,1185.39 2719.5,1237.46 2798.25,1301.34C2882.74,1369.88 2954.07,1440.37 3006.7,1535.16C3004.78,1536.29 3002.85,1537.43 3000.93,1538.56C2984.97,1531.92 2969,1525.27 2952.08,1518.23C2993.35,1595.26 3045.08,1671.17 3038.7,1762.6C3036.58,1763.7 3034.45,1764.8 3032.33,1765.89C3022.8,1754.59 3013.27,1743.29 3000.76,1728.46C3026.09,1860.52 3022.65,1947.81 2991.75,1993.64C2984.95,1983.01 2978.09,1972.28 2969.73,1959.2C2921.93,2108.21 2811.22,2187.87 2708.82,2234.63C2713.69,2187.16 2718.71,2138.29 2723.72,2089.42C2633.51,2243.34 2582.76,2407.59 2565.88,2584.55C2556.82,2679.51 2554.89,2775.05 2558.08,2870.36C2561,2957.68 2558.45,3050.31 2621.18,3118.89C2606.18,2949.59 2612.3,2769.04 2620.57,2599.29C2624.63,2516.03 2636.53,2429.83 2661.53,2350.08C2683.24,2280.82 2778.61,2259.64 2840.59,2230.11C2842.99,2275.83 2809.38,2340.5 2798.59,2386.34L2798.58,2386.32ZM1620.31,2979.78C1710.79,2901.43 1829.24,2812.52 1803.35,2676.53C1750.58,2782.17 1662.67,2860.42 1573.66,2935.12C1471.02,3021.26 1372.92,3112.15 1273.63,3202.08C1275.19,3204.41 1276.75,3206.74 1278.32,3209.07C1413.85,3193.74 1522.64,3064.35 1620.31,2979.78ZM2314.83,827.03C2195.36,912.29 2310.32,1050.72 2415.8,1065.74C2328.81,1007.72 2284.44,932.83 2314.83,827.03ZM2757.58,1700.21C2781.51,1787.77 2805.44,1875.34 2829.37,1962.9C2847.16,1864.47 2817.19,1778.33 2757.58,1700.21ZM2552.61,709.33C2563.16,665.25 2445.24,678.01 2424.3,678.01C2422.94,681.17 2421.58,684.33 2420.23,687.49C2441.89,699.28 2538.75,767.31 2552.62,709.33L2552.61,709.33Z" style="fill-rule:nonzero;"/>
    <path d="M445.47,1479.27C569.55,1610.78 754.37,1653.9 929.31,1654.53C1023.14,1654.87 1116.69,1645.1 1208.93,1628.2C1255.3,1619.7 1301.32,1609.45 1347.02,1597.9C1380.56,1589.42 1422.31,1568.58 1456.67,1571.52C1266.1,1715.4 1020.44,1725.22 792.29,1759.72C928.16,1826.57 1050.12,1848.5 1200.77,1823.67C1345.88,1799.75 1484.55,1744.8 1624.78,1702.19C1489.45,1820.47 1311.1,1861.67 1144.4,1916.31C1261.91,1961.06 1381.6,1935.83 1495.74,1893.58C1551.13,1873.08 1604.78,1848.39 1658.3,1823.48C1696.04,1805.91 1750.51,1762.2 1790.67,1793.8C1680.88,1888.75 1548.5,1942.89 1412.23,2001.55C1519.86,2030.26 1620.54,1995.8 1713.43,1941.71C1757.08,1916.29 1799.5,1888.61 1840.95,1859.76C1878.73,1833.46 1925.6,1779.38 1974.61,1809.54C1896.28,1902.31 1794.18,1965.03 1698.45,2035.64C1867.87,2016.64 1983.26,1914.96 2086.42,1786.5C1919.79,1760.21 1761.71,1698.09 1628.6,1593.34C1568.91,1546.37 1515.09,1491.66 1471.56,1429.28C1447.73,1395.13 1426.98,1358.77 1409.73,1320.86C1398.43,1296.02 1388.96,1239.49 1367.26,1224.12C1341.95,1206.19 1272.93,1220.95 1242.43,1221.44C1193.95,1222.22 1145.47,1222.92 1096.99,1223.57C997.44,1224.91 897.97,1226.47 798.45,1222.56C599.26,1214.73 406.51,1181.11 209.8,1153.28C302.69,1327.84 504.82,1385.34 688.46,1401.18C905.77,1419.93 1121.53,1391.47 1338.48,1383.32C1052.01,1492.73 746.87,1479.26 445.45,1479.26L445.47,1479.27Z" style="fill-rule:nonzero;"/>
    <path d="M2235.66,1573.68C2206.43,1538.84 2164.82,1466.39 2125.15,1446.32C2090.74,1428.91 2039.18,1428.81 2001.85,1416.81C1919.11,1390.21 1843.51,1344.42 1786.1,1278.62C1726.71,1210.54 1693,1123.78 1697.95,1033.02C1700.66,983.36 1715.61,939.85 1734.05,894.14C1748.36,858.67 1763.35,831.17 1738.28,797.35C1683.05,722.85 1553.23,686.41 1471.86,653.07C1362.93,608.43 1252.94,566.39 1144.58,520.36C942.62,434.56 750.13,332.26 554.36,233.77C552.8,235.32 551.23,236.88 549.67,238.43C667.63,377.49 835.34,444.28 996.95,520.59C1169.37,602.01 1341.91,682.86 1513.09,766.86C1512.34,769.12 1511.59,771.38 1510.84,773.64C1244.96,721.12 989.33,586.77 752.77,458.06C509.8,325.88 293.38,164.28 72.05,0C38.53,326.45 393.28,467.65 642.46,561.21C957.33,679.43 1280.66,776.94 1599.6,883.54C1565.12,1072.72 1589.95,1237.55 1729.5,1379.82C1863.93,1516.87 2044.92,1560.14 2228.93,1582.75C2231.17,1579.73 2233.42,1576.71 2235.66,1573.69L2235.66,1573.68Z" style="fill-rule:nonzero;"/>
    <path d="M1351.52,912.29C1355.37,891.49 1358.67,873.64 1361.97,855.8C984.46,744.61 613.49,623.65 257.39,450.54C277.16,492.17 296.92,533.8 320.29,583.01C210.93,526.25 106.3,471.96 0,416.8C12.72,686.92 246.61,842.74 481.23,911.36C617.81,951.31 758.54,973.47 899.57,990.57C1045.15,1008.23 1197.74,1035.91 1344.35,1035.91L1344.35,969.31C1110.55,927.69 879,876.03 657.51,786.52C888.14,828.31 1118.78,870.11 1351.53,912.29L1351.52,912.29Z" style="fill-rule:nonzero;"/>
    <path d="M51.31,837.6C115.07,1064.26 383.94,1119.06 585.93,1147.68C840.78,1183.79 1098.75,1169.92 1355.16,1169.92C1351.53,1127.72 1354.35,1094.36 1309.66,1084.51C1257.49,1073.01 1194.88,1076.87 1141.12,1071.63C1016.66,1059.51 892.44,1044.59 768.97,1024.75C522.07,985.07 287.77,917.3 51.32,837.6L51.31,837.6Z" style="fill-rule:nonzero;"/>
    <path d="M649.73,2464.15C644.98,2456.37 641.28,2450.3 640.26,2448.64C590.38,2525.73 539.88,2603.77 485.18,2688.3C595.13,2614 774.97,2619.75 846.44,2496.27C831.15,2499.76 817.04,2502.99 794.83,2508.06C865.16,2376.75 902.45,2216.47 775.68,2103C670.23,2008.61 500.33,2027.78 389.59,2101.13C434.36,2107.36 479.95,2106.36 522.22,2124.35C558.18,2139.66 587.98,2166.51 620.52,2187.57C671.89,2112.63 736.92,2228.58 740.82,2271.05C747.44,2343.1 700.93,2417 649.71,2464.16L649.73,2464.15Z" style="fill-rule:nonzero;"/>
</svg>
