<?xml version="1.0" encoding="UTF-8"?><svg id="Layer_1" xmlns="http://www.w3.org/2000/svg" viewBox="0 0 3110.64 3304.44"><defs><style>.cls-1{fill:#fff;}</style></defs><path class="cls-1" d="m2798.58,2386.32c-14.17,60.21-25.9,120.99-35.43,182.11-18.85,120.83-34.46,247.66-31.39,370.19,2.3,91.76,43.79,204.15,147.35,201.69,43.27-1.03,100.41-12.29,137.36,16.34,41.29,31.99,66.97,98.66,94.18,141.8-115.9,7.83-234.25,1.68-350.43,1.36-47.09-.13-128.8,14.9-166.5-17.69-41.63-35.99-72.91-97.45-105.42-141.39-6.41,5.57-11.66,10.14-17.58,15.28-28.86-39.64-28.01-77.25-27.67-123.73.36-49.42-17.09-89.89-33.83-136.43-17.79-49.46-114.55-220.38-61.45-263.07-15.52-19.28-58.29-55.73-57.77-82.96.52-27.21,22.99-37.52,42.81-54.11-75.03-35.49-75.59-139.58-55.81-228.3,42.35,52.65,86.22,107.2,127.52,158.55-1.8-169.96-108.35-299.99-189.58-439.33,3.34,150.87-1.74,301.64,3.09,452.2,1.99,62.16-66.51,78.93-111.51,116.85-48.02,40.46-84.72,89.01-122.53,138.59,0-158.71-17.48-306.41-204.57-330.18-160.34-20.37-328.75,69.87-358.44,236.04,110.77-86.93,378.79-251.01,458.64-38.7,71.51,190.14-77.89,418.13-225.71,525.18,67.02,59.63,131.78,36.49,214.37,34.41,85.42-2.16,130.26,3.05,178.42,76.47,1.29-.51,2.57-1.03,3.86-1.54-5.93-16.77-11.87-33.54-18.94-53.53,52.44,0,107.96-11.33,148.78,27.94,35.73,34.37,55.57,83.68,74.74,128.4-198.32,11.99-400.5,1.28-599.21,1.1-107.78-.1-215.56-.24-323.35-.47-36.6-.08-95.92,10.88-129.66-4.77-39.19-18.18-69.65-74.97-97.03-107.56-154.56,62.87-307.34,128.11-478.28,101.49-134.25-20.91-257.93-91.98-327.63-210.79-70.11-119.5-73.58-264.46-17.89-390.2,31.25-70.56,86.55-129.32,114.63-200.95,10.98-28,19.85-76.3-12.13-96.59-34.1-21.62-58.44,13.43-79.32,36.09.78-104.54,97.57-330.79,225.8-215.33,109.08,98.22,50.02,242.09-19.33,343.63-68.29,99.99-151.73,195.03-145.76,323.66,4.79,103.19,65.75,194.57,156.14,243.25,120.69,64.99,282.21,53.16,402.71-7.16,73.52-36.81,69.37-79.68,76.33-156.79,5.84-64.64,7.63-129.29,20.76-193.09,60.51-294.13,313.04-452.08,539.72-615.29,31.6-22.75,60.27-49.2,98.74-57.7,27.14-6,56.72-4.14,84.38-9.63,59.85-11.88,117-34.68,169.39-65.84,113.2-67.34,192.62-167.94,275.82-267.4-221.45-30.28-430.74-87.99-593.34-251.38-163.59-164.39-240.15-408.08-162.06-631.33,27.5,5.32,53.81,10.4,81.2,15.7-61.53,231.11,22,465.35,210.68,610.19,189,145.1,425.33,182.67,657.48,169.55-52.28-62.23-100.85-120.05-152.82-181.91,53.95,16.95,103.74,32.6,153.53,48.25,1.36-1.74,2.72-3.49,4.08-5.23-42.29-35.39-78.61-68.01-128.15-93.03-40.76-20.58-84.35-36.64-121.68-63.45-80.48-57.79-81.45-131.72-76.62-222.48-17.87,20.15-34.08,38.44-50.48,56.93-33.41-73-7.14-139.45,22.41-211.99-28.04,12.21-49.77,21.68-72.63,31.64.27-87.82,57.89-144.75,109.31-207.26-26.87,5.4-53.74,10.8-83.44,16.77,33.93-93.78,116.32-135.9,195.24-187.14-104.81-60.29-166.75-119.7-175.69-166.32,103.37,22.45,206.66,44.98,309.75,68.67,93.65,21.52,203.69,34.28,288.37,81.96,37.15,20.92,55.37,58.94,88.07,81.67,27.59,19.18,64.33,8.97,90.62,34.35,59.41,57.36,32.54,171.93-20.63,222.51-12.91-94.51-123.21-93.01-192.68-53.92-85.05,47.85-64.34,129.79-12.68,194.29,64,79.93,161.69,132,240.44,195.88,84.49,68.54,155.82,139.03,208.45,233.82-1.92,1.13-3.85,2.27-5.77,3.4-15.96-6.64-31.93-13.29-48.85-20.33,41.27,77.03,93,152.94,86.62,244.37-2.12,1.1-4.25,2.2-6.37,3.29-9.53-11.3-19.06-22.6-31.57-37.43,25.33,132.06,21.89,219.35-9.01,265.18-6.8-10.63-13.66-21.36-22.02-34.44-47.8,149.01-158.51,228.67-260.91,275.43,4.87-47.47,9.89-96.34,14.9-145.21-90.21,153.92-140.96,318.17-157.84,495.13-9.06,94.96-10.99,190.5-7.8,285.81,2.92,87.32.37,179.95,63.1,248.53-15-169.3-8.88-349.85-.61-519.6,4.06-83.26,15.96-169.46,40.96-249.21,21.71-69.26,117.08-90.44,179.06-119.97,2.4,45.72-31.21,110.39-42,156.23Zm-1178.27,593.46c90.48-78.35,208.93-167.26,183.04-303.25-52.77,105.64-140.68,183.89-229.69,258.59-102.64,86.14-200.74,177.03-300.03,266.96,1.56,2.33,3.12,4.66,4.69,6.99,135.53-15.33,244.32-144.72,341.99-229.29Zm694.52-2152.75c-119.47,85.26-4.51,223.69,100.97,238.71-86.99-58.02-131.36-132.91-100.97-238.71Zm442.75,873.18c23.93,87.56,47.86,175.13,71.79,262.69,17.79-98.43-12.18-184.57-71.79-262.69Zm-204.97-990.88c10.55-44.08-107.37-31.32-128.31-31.32-1.36,3.16-2.72,6.32-4.07,9.48,21.66,11.79,118.52,79.82,132.39,21.84Z"/><path class="cls-1" d="m445.47,1479.27c124.08,131.51,308.9,174.63,483.84,175.26,93.83.34,187.38-9.43,279.62-26.33,46.37-8.5,92.39-18.75,138.09-30.3,33.54-8.48,75.29-29.32,109.65-26.38-190.57,143.88-436.23,153.7-664.38,188.2,135.87,66.85,257.83,88.78,408.48,63.95,145.11-23.92,283.78-78.87,424.01-121.48-135.33,118.28-313.68,159.48-480.38,214.12,117.51,44.75,237.2,19.52,351.34-22.73,55.39-20.5,109.04-45.19,162.56-70.1,37.74-17.57,92.21-61.28,132.37-29.68-109.79,94.95-242.17,149.09-378.44,207.75,107.63,28.71,208.31-5.75,301.2-59.84,43.65-25.42,86.07-53.1,127.52-81.95,37.78-26.3,84.65-80.38,133.66-50.22-78.33,92.77-180.43,155.49-276.16,226.1,169.42-19,284.81-120.68,387.97-249.14-166.63-26.29-324.71-88.41-457.82-193.16-59.69-46.97-113.51-101.68-157.04-164.06-23.83-34.15-44.58-70.51-61.83-108.42-11.3-24.84-20.77-81.37-42.47-96.74-25.31-17.93-94.33-3.17-124.83-2.68-48.48.78-96.96,1.48-145.44,2.13-99.55,1.34-199.02,2.9-298.54-1.01-199.19-7.83-391.94-41.45-588.65-69.28,92.89,174.56,295.02,232.06,478.66,247.9,217.31,18.75,433.07-9.71,650.02-17.86-286.47,109.41-591.61,95.94-893.03,95.94Z"/><path class="cls-1" d="m2235.66,1573.68c-29.23-34.84-70.84-107.29-110.51-127.36-34.41-17.41-85.97-17.51-123.3-29.51-82.74-26.6-158.34-72.39-215.75-138.19-59.39-68.08-93.1-154.84-88.15-245.6,2.71-49.66,17.66-93.17,36.1-138.88,14.31-35.47,29.3-62.97,4.23-96.79-55.23-74.5-185.05-110.94-266.42-144.28-108.93-44.64-218.92-86.68-327.28-132.71-201.96-85.8-394.45-188.1-590.22-286.59-1.56,1.55-3.13,3.11-4.69,4.66,117.96,139.06,285.67,205.85,447.28,282.16,172.42,81.42,344.96,162.27,516.14,246.27-.75,2.26-1.5,4.52-2.25,6.78-265.88-52.52-521.51-186.87-758.07-315.58C509.8,325.88,293.38,164.28,72.05,0c-33.52,326.45,321.23,467.65,570.41,561.21,314.87,118.22,638.2,215.73,957.14,322.33-34.48,189.18-9.65,354.01,129.9,496.28,134.43,137.05,315.42,180.32,499.43,202.93,2.24-3.02,4.49-6.04,6.73-9.06Z"/><path class="cls-1" d="m1351.52,912.29c3.85-20.8,7.15-38.65,10.45-56.49-377.51-111.19-748.48-232.15-1104.58-405.26,19.77,41.63,39.53,83.26,62.9,132.47C210.93,526.25,106.3,471.96,0,416.8c12.72,270.12,246.61,425.94,481.23,494.56,136.58,39.95,277.31,62.11,418.34,79.21,145.58,17.66,298.17,45.34,444.78,45.34,0-22.35,0-43.88,0-66.6-233.8-41.62-465.35-93.28-686.84-182.79,230.63,41.79,461.27,83.59,694.02,125.77Z"/><path class="cls-1" d="m51.31,837.6c63.76,226.66,332.63,281.46,534.62,310.08,254.85,36.11,512.82,22.24,769.23,22.24-3.63-42.2-.81-75.56-45.5-85.41-52.17-11.5-114.78-7.64-168.54-12.88-124.46-12.12-248.68-27.04-372.15-46.88-246.9-39.68-481.2-107.45-717.65-187.15Z"/><path class="cls-1" d="m649.73,2464.15c-4.75-7.78-8.45-13.85-9.47-15.51-49.88,77.09-100.38,155.13-155.08,239.66,109.95-74.3,289.79-68.55,361.26-192.03-15.29,3.49-29.4,6.72-51.61,11.79,70.33-131.31,107.62-291.59-19.15-405.06-105.45-94.39-275.35-75.22-386.09-1.87,44.77,6.23,90.36,5.23,132.63,23.22,35.96,15.31,65.76,42.16,98.3,63.22,51.37-74.94,116.4,41.01,120.3,83.48,6.62,72.05-39.89,145.95-91.11,193.11Z"/></svg>